<svg xmlns="http://www.w3.org/2000/svg" xmlns:xlink="http://www.w3.org/1999/xlink" width="100" height="100" viewBox="0 0 100 100">
  <defs>
    <clipPath id="clip-iPhone_14_Pro_Max_1">
      <rect width="100" height="100"/>
    </clipPath>
  </defs>
  <g id="iPhone_14_Pro_Max_1" data-name="iPhone 14 Pro Max – 1" clip-path="url(#clip-iPhone_14_Pro_Max_1)">
    <rect width="100" height="100" fill="#fff"/>
    <g id="Group_1" data-name="Group 1" transform="translate(24.146 24.949)">
      <g id="Path_6" data-name="Path 6" transform="translate(0.184 0.079)" fill="none">
        <path d="M21.174,7.464a5,5,0,0,1,8.652,0L46.649,36.493A5,5,0,0,1,42.323,44H8.677a5,5,0,0,1-4.326-7.507Z" stroke="none"/>
        <path d="M 25.5 7.971603393554688 C 25.15346908569336 7.971603393554688 24.29117965698242 8.068763732910156 23.76959991455078 8.968753814697266 L 6.946319580078125 37.99715423583984 C 6.423240661621094 38.89971160888672 6.770339965820312 39.69748306274414 6.943851470947266 39.99858474731445 C 7.117359161376953 40.29967498779297 7.633548736572266 41.00000381469727 8.676719665527344 41.00000381469727 L 42.32326889038086 41.00000381469727 C 43.36645126342773 41.00000381469727 43.88264083862305 40.29967498779297 44.05614852905273 39.99857330322266 C 44.22966003417969 39.69747161865234 44.57675170898438 38.89970397949219 44.05366897583008 37.99714279174805 L 27.23040962219238 8.968753814697266 C 26.70882034301758 8.068763732910156 25.84653091430664 7.971603393554688 25.5 7.971603393554688 M 25.49999618530273 4.971603393554688 C 27.18142318725586 4.971603393554688 28.86285018920898 5.802562713623047 29.82600975036621 7.464485168457031 L 46.6492805480957 36.49287414550781 C 48.58110046386719 39.82620239257812 46.17593002319336 44.00000381469727 42.32326889038086 44.00000381469727 L 8.676719665527344 44.00000381469727 C 4.824069976806641 44.00000381469727 2.418899536132812 39.82621383666992 4.350711822509766 36.49288177490234 L 21.17399024963379 7.464485168457031 C 22.13714408874512 5.802562713623047 23.81856918334961 4.971603393554688 25.49999618530273 4.971603393554688 Z" stroke="none" fill="#868686"/>
      </g>
      <path id="Path_3" data-name="Path 3" d="M776.248,984.347h5.025l-.733,13.827h-3.546Z" transform="translate(-753.192 -966.185)" fill="#868686" stroke="#868686" stroke-width="1"/>
      <g id="Path_4" data-name="Path 4" transform="translate(-753.386 -972.958)" fill="#868686">
        <path d="M 780.5966186523438 1009.652160644531 L 777.3262329101562 1009.652160644531 L 777.3262329101562 1006.989318847656 L 780.5966186523438 1006.989318847656 L 780.5966186523438 1009.652160644531 Z" stroke="none"/>
        <path d="M 777.8262329101562 1007.489318847656 L 777.8262329101562 1009.152160644531 L 780.0966186523438 1009.152160644531 L 780.0966186523438 1007.489318847656 L 777.8262329101562 1007.489318847656 M 776.8262329101562 1006.489318847656 L 781.0966186523438 1006.489318847656 L 781.0966186523438 1010.152160644531 L 776.8262329101562 1010.152160644531 L 776.8262329101562 1006.489318847656 Z" stroke="none" fill="#868686"/>
      </g>
    </g>
  </g>
</svg>
