<?xml version="1.0" standalone="no"?>
<!DOCTYPE svg PUBLIC "-//W3C//DTD SVG 20010904//EN"
 "http://www.w3.org/TR/2001/REC-SVG-20010904/DTD/svg10.dtd">
<svg version="1.0" xmlns="http://www.w3.org/2000/svg"
 width="1064.000000pt" height="1064.000000pt" viewBox="0 0 1064.000000 1064.000000"
 preserveAspectRatio="xMidYMid meet">
<metadata>
Created by potrace 1.14, written by Peter Selinger 2001-2017
</metadata>
<g transform="translate(0.000000,1064.000000) scale(0.100000,-0.100000)"
fill="#000000" stroke="none">
<path d="M20 5315 l0 -5315 5305 0 5305 0 0 5315 0 5315 -5305 0 -5305 0 0
-5315z m6125 1078 c-3 -10 -103 -281 -220 -603 -117 -322 -279 -765 -360 -985
-80 -220 -162 -444 -182 -497 l-35 -98 -399 0 c-219 0 -399 2 -399 4 0 2 54
152 121 332 281 768 469 1285 469 1294 0 6 -63 10 -165 10 -91 0 -165 3 -165
8 0 35 323 421 428 511 l47 40 434 1 c409 0 433 -1 426 -17z m2159 -12 c276
-62 452 -172 554 -346 71 -123 85 -177 90 -368 6 -256 -24 -408 -121 -599
-208 -406 -584 -718 -997 -826 l-105 -27 -395 0 c-409 0 -511 8 -675 50 -306
80 -488 260 -546 540 -18 85 -20 121 -15 245 3 80 12 177 20 215 55 268 246
580 490 797 202 180 395 286 606 334 41 9 176 12 525 10 444 -3 476 -4 569
-25z"/>
<path d="M7405 5836 c-109 -36 -222 -113 -331 -228 -152 -161 -212 -336 -170
-493 42 -158 151 -291 273 -330 42 -14 83 -16 230 -13 l178 3 95 47 c109 53
262 175 334 265 25 32 65 96 89 143 l42 85 0 155 c0 142 -2 160 -24 207 -27
61 -84 116 -150 146 -42 20 -66 22 -286 24 -177 2 -251 -1 -280 -11z"/>
</g>
</svg>
